<mxfile host="app.diagrams.net" agent="Mozilla/5.0 (X11; Ubuntu; Linux x86_64; rv:134.0) Gecko/20100101 Firefox/134.0" version="26.0.6">
  <diagram name="Page-1" id="e56a1550-8fbb-45ad-956c-1786394a9013">
    <mxGraphModel dx="1050" dy="809" grid="1" gridSize="10" guides="1" tooltips="1" connect="1" arrows="1" fold="1" page="1" pageScale="1" pageWidth="1654" pageHeight="2336" background="none" math="0" shadow="0">
      <root>
        <mxCell id="0" />
        <mxCell id="1" parent="0" />
        <mxCell id="LK9hV9PF9iakqC5knJyZ-14" value="+ Button: enum (elev.rs)" style="swimlane;fontStyle=0;childLayout=stackLayout;horizontal=1;startSize=26;fillColor=none;horizontalStack=0;resizeParent=1;resizeParentMax=0;resizeLast=0;collapsible=1;marginBottom=0;whiteSpace=wrap;html=1;" parent="1" vertex="1">
          <mxGeometry x="350" y="80" width="140" height="104" as="geometry" />
        </mxCell>
        <mxCell id="g7h0uX8e83a2EdI19kgs-22" style="edgeStyle=orthogonalEdgeStyle;rounded=0;orthogonalLoop=1;jettySize=auto;html=1;" edge="1" parent="LK9hV9PF9iakqC5knJyZ-14" source="LK9hV9PF9iakqC5knJyZ-15">
          <mxGeometry relative="1" as="geometry">
            <mxPoint x="160" y="39" as="targetPoint" />
          </mxGeometry>
        </mxCell>
        <mxCell id="g7h0uX8e83a2EdI19kgs-25" value="29" style="edgeLabel;html=1;align=center;verticalAlign=middle;resizable=0;points=[];" vertex="1" connectable="0" parent="g7h0uX8e83a2EdI19kgs-22">
          <mxGeometry x="0.7149" y="-1" relative="1" as="geometry">
            <mxPoint x="12" y="-1" as="offset" />
          </mxGeometry>
        </mxCell>
        <mxCell id="LK9hV9PF9iakqC5knJyZ-15" value="BHallup = 0" style="text;strokeColor=none;fillColor=none;align=left;verticalAlign=top;spacingLeft=4;spacingRight=4;overflow=hidden;rotatable=0;points=[[0,0.5],[1,0.5]];portConstraint=eastwest;whiteSpace=wrap;html=1;" parent="LK9hV9PF9iakqC5knJyZ-14" vertex="1">
          <mxGeometry y="26" width="140" height="26" as="geometry" />
        </mxCell>
        <mxCell id="g7h0uX8e83a2EdI19kgs-23" style="edgeStyle=orthogonalEdgeStyle;rounded=0;orthogonalLoop=1;jettySize=auto;html=1;" edge="1" parent="LK9hV9PF9iakqC5knJyZ-14" source="LK9hV9PF9iakqC5knJyZ-16">
          <mxGeometry relative="1" as="geometry">
            <mxPoint x="160" y="65" as="targetPoint" />
          </mxGeometry>
        </mxCell>
        <mxCell id="g7h0uX8e83a2EdI19kgs-26" value="30" style="edgeLabel;html=1;align=center;verticalAlign=middle;resizable=0;points=[];" vertex="1" connectable="0" parent="g7h0uX8e83a2EdI19kgs-23">
          <mxGeometry x="0.4637" y="1" relative="1" as="geometry">
            <mxPoint x="15" y="1" as="offset" />
          </mxGeometry>
        </mxCell>
        <mxCell id="LK9hV9PF9iakqC5knJyZ-16" value="BHalldown = 1" style="text;strokeColor=none;fillColor=none;align=left;verticalAlign=top;spacingLeft=4;spacingRight=4;overflow=hidden;rotatable=0;points=[[0,0.5],[1,0.5]];portConstraint=eastwest;whiteSpace=wrap;html=1;" parent="LK9hV9PF9iakqC5knJyZ-14" vertex="1">
          <mxGeometry y="52" width="140" height="26" as="geometry" />
        </mxCell>
        <mxCell id="g7h0uX8e83a2EdI19kgs-24" style="edgeStyle=orthogonalEdgeStyle;rounded=0;orthogonalLoop=1;jettySize=auto;html=1;" edge="1" parent="LK9hV9PF9iakqC5knJyZ-14" source="LK9hV9PF9iakqC5knJyZ-17">
          <mxGeometry relative="1" as="geometry">
            <mxPoint x="160" y="97" as="targetPoint" />
          </mxGeometry>
        </mxCell>
        <mxCell id="g7h0uX8e83a2EdI19kgs-27" value="31" style="edgeLabel;html=1;align=center;verticalAlign=middle;resizable=0;points=[];" vertex="1" connectable="0" parent="g7h0uX8e83a2EdI19kgs-24">
          <mxGeometry x="0.2402" relative="1" as="geometry">
            <mxPoint x="17" as="offset" />
          </mxGeometry>
        </mxCell>
        <mxCell id="LK9hV9PF9iakqC5knJyZ-17" value="BCab = 2" style="text;strokeColor=none;fillColor=none;align=left;verticalAlign=top;spacingLeft=4;spacingRight=4;overflow=hidden;rotatable=0;points=[[0,0.5],[1,0.5]];portConstraint=eastwest;whiteSpace=wrap;html=1;" parent="LK9hV9PF9iakqC5knJyZ-14" vertex="1">
          <mxGeometry y="78" width="140" height="26" as="geometry" />
        </mxCell>
        <mxCell id="LK9hV9PF9iakqC5knJyZ-19" value="MACRO (elev.rs)" style="swimlane;fontStyle=0;childLayout=stackLayout;horizontal=1;startSize=26;fillColor=none;horizontalStack=0;resizeParent=1;resizeParentMax=0;resizeLast=0;collapsible=1;marginBottom=0;whiteSpace=wrap;html=1;" parent="1" vertex="1">
          <mxGeometry x="930" y="250" width="160" height="260" as="geometry" />
        </mxCell>
        <mxCell id="LK9hV9PF9iakqC5knJyZ-143" style="edgeStyle=orthogonalEdgeStyle;rounded=0;orthogonalLoop=1;jettySize=auto;html=1;" parent="LK9hV9PF9iakqC5knJyZ-19" source="LK9hV9PF9iakqC5knJyZ-20" edge="1">
          <mxGeometry relative="1" as="geometry">
            <mxPoint x="180" y="39" as="targetPoint" />
          </mxGeometry>
        </mxCell>
        <mxCell id="LK9hV9PF9iakqC5knJyZ-152" value="20" style="edgeLabel;html=1;align=center;verticalAlign=middle;resizable=0;points=[];" parent="LK9hV9PF9iakqC5knJyZ-143" vertex="1" connectable="0">
          <mxGeometry x="0.4286" y="2" relative="1" as="geometry">
            <mxPoint x="15" y="2" as="offset" />
          </mxGeometry>
        </mxCell>
        <mxCell id="LK9hV9PF9iakqC5knJyZ-20" value="+ HALL_UP: BHallup" style="text;strokeColor=none;fillColor=none;align=left;verticalAlign=top;spacingLeft=4;spacingRight=4;overflow=hidden;rotatable=0;points=[[0,0.5],[1,0.5]];portConstraint=eastwest;whiteSpace=wrap;html=1;" parent="LK9hV9PF9iakqC5knJyZ-19" vertex="1">
          <mxGeometry y="26" width="160" height="26" as="geometry" />
        </mxCell>
        <mxCell id="LK9hV9PF9iakqC5knJyZ-144" style="edgeStyle=orthogonalEdgeStyle;rounded=0;orthogonalLoop=1;jettySize=auto;html=1;" parent="LK9hV9PF9iakqC5knJyZ-19" source="LK9hV9PF9iakqC5knJyZ-21" edge="1">
          <mxGeometry relative="1" as="geometry">
            <mxPoint x="180" y="65" as="targetPoint" />
          </mxGeometry>
        </mxCell>
        <mxCell id="LK9hV9PF9iakqC5knJyZ-153" value="21" style="edgeLabel;html=1;align=center;verticalAlign=middle;resizable=0;points=[];" parent="LK9hV9PF9iakqC5knJyZ-144" vertex="1" connectable="0">
          <mxGeometry x="0.4762" y="2" relative="1" as="geometry">
            <mxPoint x="15" y="2" as="offset" />
          </mxGeometry>
        </mxCell>
        <mxCell id="LK9hV9PF9iakqC5knJyZ-21" value="+ HALL_DOWN: BHalldown" style="text;strokeColor=none;fillColor=none;align=left;verticalAlign=top;spacingLeft=4;spacingRight=4;overflow=hidden;rotatable=0;points=[[0,0.5],[1,0.5]];portConstraint=eastwest;whiteSpace=wrap;html=1;" parent="LK9hV9PF9iakqC5knJyZ-19" vertex="1">
          <mxGeometry y="52" width="160" height="26" as="geometry" />
        </mxCell>
        <mxCell id="LK9hV9PF9iakqC5knJyZ-145" style="edgeStyle=orthogonalEdgeStyle;rounded=0;orthogonalLoop=1;jettySize=auto;html=1;" parent="LK9hV9PF9iakqC5knJyZ-19" source="LK9hV9PF9iakqC5knJyZ-22" edge="1">
          <mxGeometry relative="1" as="geometry">
            <mxPoint x="180" y="91" as="targetPoint" />
          </mxGeometry>
        </mxCell>
        <mxCell id="LK9hV9PF9iakqC5knJyZ-154" value="22" style="edgeLabel;html=1;align=center;verticalAlign=middle;resizable=0;points=[];" parent="LK9hV9PF9iakqC5knJyZ-145" vertex="1" connectable="0">
          <mxGeometry x="0.2857" y="1" relative="1" as="geometry">
            <mxPoint x="17" y="1" as="offset" />
          </mxGeometry>
        </mxCell>
        <mxCell id="LK9hV9PF9iakqC5knJyZ-22" value="+ CAB: BCab" style="text;strokeColor=none;fillColor=none;align=left;verticalAlign=top;spacingLeft=4;spacingRight=4;overflow=hidden;rotatable=0;points=[[0,0.5],[1,0.5]];portConstraint=eastwest;whiteSpace=wrap;html=1;" parent="LK9hV9PF9iakqC5knJyZ-19" vertex="1">
          <mxGeometry y="78" width="160" height="26" as="geometry" />
        </mxCell>
        <mxCell id="LK9hV9PF9iakqC5knJyZ-146" style="edgeStyle=orthogonalEdgeStyle;rounded=0;orthogonalLoop=1;jettySize=auto;html=1;" parent="LK9hV9PF9iakqC5knJyZ-19" source="LK9hV9PF9iakqC5knJyZ-23" edge="1">
          <mxGeometry relative="1" as="geometry">
            <mxPoint x="180" y="117" as="targetPoint" />
          </mxGeometry>
        </mxCell>
        <mxCell id="LK9hV9PF9iakqC5knJyZ-155" value="23" style="edgeLabel;html=1;align=center;verticalAlign=middle;resizable=0;points=[];" parent="LK9hV9PF9iakqC5knJyZ-146" vertex="1" connectable="0">
          <mxGeometry x="0.2381" y="1" relative="1" as="geometry">
            <mxPoint x="17" y="1" as="offset" />
          </mxGeometry>
        </mxCell>
        <mxCell id="LK9hV9PF9iakqC5knJyZ-23" value="+ EB_MOVING: u8 = 1" style="text;strokeColor=none;fillColor=none;align=left;verticalAlign=top;spacingLeft=4;spacingRight=4;overflow=hidden;rotatable=0;points=[[0,0.5],[1,0.5]];portConstraint=eastwest;whiteSpace=wrap;html=1;" parent="LK9hV9PF9iakqC5knJyZ-19" vertex="1">
          <mxGeometry y="104" width="160" height="26" as="geometry" />
        </mxCell>
        <mxCell id="LK9hV9PF9iakqC5knJyZ-147" style="edgeStyle=orthogonalEdgeStyle;rounded=0;orthogonalLoop=1;jettySize=auto;html=1;" parent="LK9hV9PF9iakqC5knJyZ-19" source="LK9hV9PF9iakqC5knJyZ-24" edge="1">
          <mxGeometry relative="1" as="geometry">
            <mxPoint x="180" y="143" as="targetPoint" />
          </mxGeometry>
        </mxCell>
        <mxCell id="LK9hV9PF9iakqC5knJyZ-156" value="24" style="edgeLabel;html=1;align=center;verticalAlign=middle;resizable=0;points=[];" parent="LK9hV9PF9iakqC5knJyZ-147" vertex="1" connectable="0">
          <mxGeometry x="0.2857" y="-1" relative="1" as="geometry">
            <mxPoint x="17" y="-1" as="offset" />
          </mxGeometry>
        </mxCell>
        <mxCell id="LK9hV9PF9iakqC5knJyZ-24" value="+ EB_MOVING: u8 = 2" style="text;strokeColor=none;fillColor=none;align=left;verticalAlign=top;spacingLeft=4;spacingRight=4;overflow=hidden;rotatable=0;points=[[0,0.5],[1,0.5]];portConstraint=eastwest;whiteSpace=wrap;html=1;" parent="LK9hV9PF9iakqC5knJyZ-19" vertex="1">
          <mxGeometry y="130" width="160" height="26" as="geometry" />
        </mxCell>
        <mxCell id="LK9hV9PF9iakqC5knJyZ-148" style="edgeStyle=orthogonalEdgeStyle;rounded=0;orthogonalLoop=1;jettySize=auto;html=1;" parent="LK9hV9PF9iakqC5knJyZ-19" source="LK9hV9PF9iakqC5knJyZ-25" edge="1">
          <mxGeometry relative="1" as="geometry">
            <mxPoint x="180" y="169" as="targetPoint" />
          </mxGeometry>
        </mxCell>
        <mxCell id="LK9hV9PF9iakqC5knJyZ-157" value="25" style="edgeLabel;html=1;align=center;verticalAlign=middle;resizable=0;points=[];" parent="LK9hV9PF9iakqC5knJyZ-148" vertex="1" connectable="0">
          <mxGeometry x="0.2857" relative="1" as="geometry">
            <mxPoint x="17" as="offset" />
          </mxGeometry>
        </mxCell>
        <mxCell id="LK9hV9PF9iakqC5knJyZ-25" value="+ EB_DOOROPEN: u8 = 3" style="text;strokeColor=none;fillColor=none;align=left;verticalAlign=top;spacingLeft=4;spacingRight=4;overflow=hidden;rotatable=0;points=[[0,0.5],[1,0.5]];portConstraint=eastwest;whiteSpace=wrap;html=1;" parent="LK9hV9PF9iakqC5knJyZ-19" vertex="1">
          <mxGeometry y="156" width="160" height="26" as="geometry" />
        </mxCell>
        <mxCell id="LK9hV9PF9iakqC5knJyZ-149" style="edgeStyle=orthogonalEdgeStyle;rounded=0;orthogonalLoop=1;jettySize=auto;html=1;" parent="LK9hV9PF9iakqC5knJyZ-19" source="LK9hV9PF9iakqC5knJyZ-26" edge="1">
          <mxGeometry relative="1" as="geometry">
            <mxPoint x="180" y="195" as="targetPoint" />
          </mxGeometry>
        </mxCell>
        <mxCell id="LK9hV9PF9iakqC5knJyZ-159" value="26" style="edgeLabel;html=1;align=center;verticalAlign=middle;resizable=0;points=[];" parent="LK9hV9PF9iakqC5knJyZ-149" vertex="1" connectable="0">
          <mxGeometry x="0.2381" y="2" relative="1" as="geometry">
            <mxPoint x="17" y="2" as="offset" />
          </mxGeometry>
        </mxCell>
        <mxCell id="LK9hV9PF9iakqC5knJyZ-26" value="+ DIRN_DOWN: u8 = 255" style="text;strokeColor=none;fillColor=none;align=left;verticalAlign=top;spacingLeft=4;spacingRight=4;overflow=hidden;rotatable=0;points=[[0,0.5],[1,0.5]];portConstraint=eastwest;whiteSpace=wrap;html=1;" parent="LK9hV9PF9iakqC5knJyZ-19" vertex="1">
          <mxGeometry y="182" width="160" height="26" as="geometry" />
        </mxCell>
        <mxCell id="LK9hV9PF9iakqC5knJyZ-150" style="edgeStyle=orthogonalEdgeStyle;rounded=0;orthogonalLoop=1;jettySize=auto;html=1;" parent="LK9hV9PF9iakqC5knJyZ-19" source="LK9hV9PF9iakqC5knJyZ-27" edge="1">
          <mxGeometry relative="1" as="geometry">
            <mxPoint x="180" y="221" as="targetPoint" />
          </mxGeometry>
        </mxCell>
        <mxCell id="LK9hV9PF9iakqC5knJyZ-160" value="27" style="edgeLabel;html=1;align=center;verticalAlign=middle;resizable=0;points=[];" parent="LK9hV9PF9iakqC5knJyZ-150" vertex="1" connectable="0">
          <mxGeometry x="0.0952" y="1" relative="1" as="geometry">
            <mxPoint x="19" y="1" as="offset" />
          </mxGeometry>
        </mxCell>
        <mxCell id="LK9hV9PF9iakqC5knJyZ-27" value="+ DIRN_STOP: u8 = 0" style="text;strokeColor=none;fillColor=none;align=left;verticalAlign=top;spacingLeft=4;spacingRight=4;overflow=hidden;rotatable=0;points=[[0,0.5],[1,0.5]];portConstraint=eastwest;whiteSpace=wrap;html=1;" parent="LK9hV9PF9iakqC5knJyZ-19" vertex="1">
          <mxGeometry y="208" width="160" height="26" as="geometry" />
        </mxCell>
        <mxCell id="LK9hV9PF9iakqC5knJyZ-151" style="edgeStyle=orthogonalEdgeStyle;rounded=0;orthogonalLoop=1;jettySize=auto;html=1;" parent="LK9hV9PF9iakqC5knJyZ-19" source="LK9hV9PF9iakqC5knJyZ-28" edge="1">
          <mxGeometry relative="1" as="geometry">
            <mxPoint x="180" y="247" as="targetPoint" />
          </mxGeometry>
        </mxCell>
        <mxCell id="LK9hV9PF9iakqC5knJyZ-161" value="28" style="edgeLabel;html=1;align=center;verticalAlign=middle;resizable=0;points=[];" parent="LK9hV9PF9iakqC5knJyZ-151" vertex="1" connectable="0">
          <mxGeometry x="0.2381" relative="1" as="geometry">
            <mxPoint x="17" as="offset" />
          </mxGeometry>
        </mxCell>
        <mxCell id="LK9hV9PF9iakqC5knJyZ-28" value="+ DIRN_UP: u8 = 1" style="text;strokeColor=none;fillColor=none;align=left;verticalAlign=top;spacingLeft=4;spacingRight=4;overflow=hidden;rotatable=0;points=[[0,0.5],[1,0.5]];portConstraint=eastwest;whiteSpace=wrap;html=1;" parent="LK9hV9PF9iakqC5knJyZ-19" vertex="1">
          <mxGeometry y="234" width="160" height="26" as="geometry" />
        </mxCell>
        <mxCell id="LK9hV9PF9iakqC5knJyZ-29" value="+ ElevatorBehaviour: enum (elev.rs)" style="swimlane;fontStyle=0;childLayout=stackLayout;horizontal=1;startSize=26;fillColor=none;horizontalStack=0;resizeParent=1;resizeParentMax=0;resizeLast=0;collapsible=1;marginBottom=0;whiteSpace=wrap;html=1;" parent="1" vertex="1">
          <mxGeometry x="1050" y="62" width="200" height="104" as="geometry" />
        </mxCell>
        <mxCell id="g7h0uX8e83a2EdI19kgs-36" style="edgeStyle=orthogonalEdgeStyle;rounded=0;orthogonalLoop=1;jettySize=auto;html=1;" edge="1" parent="LK9hV9PF9iakqC5knJyZ-29" source="LK9hV9PF9iakqC5knJyZ-30">
          <mxGeometry relative="1" as="geometry">
            <mxPoint x="220.00000000000023" y="39.000000000000114" as="targetPoint" />
          </mxGeometry>
        </mxCell>
        <mxCell id="g7h0uX8e83a2EdI19kgs-39" value="32" style="edgeLabel;html=1;align=center;verticalAlign=middle;resizable=0;points=[];" vertex="1" connectable="0" parent="g7h0uX8e83a2EdI19kgs-36">
          <mxGeometry x="0.4966" y="2" relative="1" as="geometry">
            <mxPoint x="14" y="2" as="offset" />
          </mxGeometry>
        </mxCell>
        <mxCell id="LK9hV9PF9iakqC5knJyZ-30" value="EbIdle = 0" style="text;strokeColor=none;fillColor=none;align=left;verticalAlign=top;spacingLeft=4;spacingRight=4;overflow=hidden;rotatable=0;points=[[0,0.5],[1,0.5]];portConstraint=eastwest;whiteSpace=wrap;html=1;" parent="LK9hV9PF9iakqC5knJyZ-29" vertex="1">
          <mxGeometry y="26" width="200" height="26" as="geometry" />
        </mxCell>
        <mxCell id="g7h0uX8e83a2EdI19kgs-37" style="edgeStyle=orthogonalEdgeStyle;rounded=0;orthogonalLoop=1;jettySize=auto;html=1;" edge="1" parent="LK9hV9PF9iakqC5knJyZ-29" source="LK9hV9PF9iakqC5knJyZ-31">
          <mxGeometry relative="1" as="geometry">
            <mxPoint x="220.00000000000023" y="65" as="targetPoint" />
          </mxGeometry>
        </mxCell>
        <mxCell id="g7h0uX8e83a2EdI19kgs-40" value="33" style="edgeLabel;html=1;align=center;verticalAlign=middle;resizable=0;points=[];" vertex="1" connectable="0" parent="g7h0uX8e83a2EdI19kgs-37">
          <mxGeometry x="0.5646" y="-1" relative="1" as="geometry">
            <mxPoint x="14" y="-1" as="offset" />
          </mxGeometry>
        </mxCell>
        <mxCell id="LK9hV9PF9iakqC5knJyZ-31" value="EbDoorOpen = 1" style="text;strokeColor=none;fillColor=none;align=left;verticalAlign=top;spacingLeft=4;spacingRight=4;overflow=hidden;rotatable=0;points=[[0,0.5],[1,0.5]];portConstraint=eastwest;whiteSpace=wrap;html=1;" parent="LK9hV9PF9iakqC5knJyZ-29" vertex="1">
          <mxGeometry y="52" width="200" height="26" as="geometry" />
        </mxCell>
        <mxCell id="g7h0uX8e83a2EdI19kgs-38" style="edgeStyle=orthogonalEdgeStyle;rounded=0;orthogonalLoop=1;jettySize=auto;html=1;" edge="1" parent="LK9hV9PF9iakqC5knJyZ-29" source="LK9hV9PF9iakqC5knJyZ-32">
          <mxGeometry relative="1" as="geometry">
            <mxPoint x="220.00000000000023" y="91" as="targetPoint" />
          </mxGeometry>
        </mxCell>
        <mxCell id="g7h0uX8e83a2EdI19kgs-41" value="34" style="edgeLabel;html=1;align=center;verticalAlign=middle;resizable=0;points=[];" vertex="1" connectable="0" parent="g7h0uX8e83a2EdI19kgs-38">
          <mxGeometry x="0.4966" y="1" relative="1" as="geometry">
            <mxPoint x="14" y="1" as="offset" />
          </mxGeometry>
        </mxCell>
        <mxCell id="LK9hV9PF9iakqC5knJyZ-32" value="EbMoving = 2" style="text;strokeColor=none;fillColor=none;align=left;verticalAlign=top;spacingLeft=4;spacingRight=4;overflow=hidden;rotatable=0;points=[[0,0.5],[1,0.5]];portConstraint=eastwest;whiteSpace=wrap;html=1;" parent="LK9hV9PF9iakqC5knJyZ-29" vertex="1">
          <mxGeometry y="78" width="200" height="26" as="geometry" />
        </mxCell>
        <mxCell id="LK9hV9PF9iakqC5knJyZ-33" value="Classname" style="swimlane;fontStyle=1;align=center;verticalAlign=top;childLayout=stackLayout;horizontal=1;startSize=26;horizontalStack=0;resizeParent=1;resizeParentMax=0;resizeLast=0;collapsible=1;marginBottom=0;whiteSpace=wrap;html=1;" parent="1" vertex="1">
          <mxGeometry x="820" y="80" width="160" height="86" as="geometry" />
        </mxCell>
        <mxCell id="LK9hV9PF9iakqC5knJyZ-34" value="+ field: type" style="text;strokeColor=none;fillColor=none;align=left;verticalAlign=top;spacingLeft=4;spacingRight=4;overflow=hidden;rotatable=0;points=[[0,0.5],[1,0.5]];portConstraint=eastwest;whiteSpace=wrap;html=1;" parent="LK9hV9PF9iakqC5knJyZ-33" vertex="1">
          <mxGeometry y="26" width="160" height="26" as="geometry" />
        </mxCell>
        <mxCell id="LK9hV9PF9iakqC5knJyZ-35" value="" style="line;strokeWidth=1;fillColor=none;align=left;verticalAlign=middle;spacingTop=-1;spacingLeft=3;spacingRight=3;rotatable=0;labelPosition=right;points=[];portConstraint=eastwest;strokeColor=inherit;" parent="LK9hV9PF9iakqC5knJyZ-33" vertex="1">
          <mxGeometry y="52" width="160" height="8" as="geometry" />
        </mxCell>
        <mxCell id="LK9hV9PF9iakqC5knJyZ-36" value="+ method(type): type" style="text;strokeColor=none;fillColor=none;align=left;verticalAlign=top;spacingLeft=4;spacingRight=4;overflow=hidden;rotatable=0;points=[[0,0.5],[1,0.5]];portConstraint=eastwest;whiteSpace=wrap;html=1;" parent="LK9hV9PF9iakqC5knJyZ-33" vertex="1">
          <mxGeometry y="60" width="160" height="26" as="geometry" />
        </mxCell>
        <mxCell id="LK9hV9PF9iakqC5knJyZ-37" value="+ Elevator: struct (elev.rs)" style="swimlane;fontStyle=1;align=center;verticalAlign=top;childLayout=stackLayout;horizontal=1;startSize=26;horizontalStack=0;resizeParent=1;resizeParentMax=0;resizeLast=0;collapsible=1;marginBottom=0;whiteSpace=wrap;html=1;" parent="1" vertex="1">
          <mxGeometry x="50" y="80" width="220" height="450" as="geometry" />
        </mxCell>
        <mxCell id="LK9hV9PF9iakqC5knJyZ-38" value="&lt;div&gt;- socket: TcpStream&lt;/div&gt;" style="text;strokeColor=none;fillColor=none;align=left;verticalAlign=top;spacingLeft=4;spacingRight=4;overflow=hidden;rotatable=0;points=[[0,0.5],[1,0.5]];portConstraint=eastwest;whiteSpace=wrap;html=1;" parent="LK9hV9PF9iakqC5knJyZ-37" vertex="1">
          <mxGeometry y="26" width="220" height="26" as="geometry" />
        </mxCell>
        <mxCell id="LK9hV9PF9iakqC5knJyZ-84" style="edgeStyle=orthogonalEdgeStyle;rounded=0;orthogonalLoop=1;jettySize=auto;html=1;" parent="LK9hV9PF9iakqC5knJyZ-37" source="LK9hV9PF9iakqC5knJyZ-54" edge="1">
          <mxGeometry relative="1" as="geometry">
            <mxPoint x="240" y="65" as="targetPoint" />
          </mxGeometry>
        </mxCell>
        <mxCell id="LK9hV9PF9iakqC5knJyZ-89" value="1" style="edgeLabel;html=1;align=center;verticalAlign=middle;resizable=0;points=[];" parent="LK9hV9PF9iakqC5knJyZ-84" vertex="1" connectable="0">
          <mxGeometry x="0.6548" relative="1" as="geometry">
            <mxPoint x="13" y="6" as="offset" />
          </mxGeometry>
        </mxCell>
        <mxCell id="LK9hV9PF9iakqC5knJyZ-54" value="+ num_floors: usize" style="text;strokeColor=none;fillColor=none;align=left;verticalAlign=top;spacingLeft=4;spacingRight=4;overflow=hidden;rotatable=0;points=[[0,0.5],[1,0.5]];portConstraint=eastwest;whiteSpace=wrap;html=1;" parent="LK9hV9PF9iakqC5knJyZ-37" vertex="1">
          <mxGeometry y="52" width="220" height="26" as="geometry" />
        </mxCell>
        <mxCell id="LK9hV9PF9iakqC5knJyZ-85" style="edgeStyle=orthogonalEdgeStyle;rounded=0;orthogonalLoop=1;jettySize=auto;html=1;" parent="LK9hV9PF9iakqC5knJyZ-37" source="LK9hV9PF9iakqC5knJyZ-53" edge="1">
          <mxGeometry relative="1" as="geometry">
            <mxPoint x="240" y="91" as="targetPoint" />
          </mxGeometry>
        </mxCell>
        <mxCell id="LK9hV9PF9iakqC5knJyZ-91" value="2" style="edgeLabel;html=1;align=center;verticalAlign=middle;resizable=0;points=[];" parent="LK9hV9PF9iakqC5knJyZ-85" vertex="1" connectable="0">
          <mxGeometry x="0.5357" y="-1" relative="1" as="geometry">
            <mxPoint x="14" y="5" as="offset" />
          </mxGeometry>
        </mxCell>
        <mxCell id="LK9hV9PF9iakqC5knJyZ-53" value="+ floor: usize" style="text;strokeColor=none;fillColor=none;align=left;verticalAlign=top;spacingLeft=4;spacingRight=4;overflow=hidden;rotatable=0;points=[[0,0.5],[1,0.5]];portConstraint=eastwest;whiteSpace=wrap;html=1;" parent="LK9hV9PF9iakqC5knJyZ-37" vertex="1">
          <mxGeometry y="78" width="220" height="26" as="geometry" />
        </mxCell>
        <mxCell id="LK9hV9PF9iakqC5knJyZ-86" style="edgeStyle=orthogonalEdgeStyle;rounded=0;orthogonalLoop=1;jettySize=auto;html=1;" parent="LK9hV9PF9iakqC5knJyZ-37" source="LK9hV9PF9iakqC5knJyZ-52" edge="1">
          <mxGeometry relative="1" as="geometry">
            <mxPoint x="240" y="117" as="targetPoint" />
          </mxGeometry>
        </mxCell>
        <mxCell id="LK9hV9PF9iakqC5knJyZ-92" value="3" style="edgeLabel;html=1;align=center;verticalAlign=middle;resizable=0;points=[];" parent="LK9hV9PF9iakqC5knJyZ-86" vertex="1" connectable="0">
          <mxGeometry x="0.4762" y="2" relative="1" as="geometry">
            <mxPoint x="14" y="5" as="offset" />
          </mxGeometry>
        </mxCell>
        <mxCell id="LK9hV9PF9iakqC5knJyZ-52" value="&lt;div&gt;+ dirn: u8&lt;/div&gt;" style="text;strokeColor=none;fillColor=none;align=left;verticalAlign=top;spacingLeft=4;spacingRight=4;overflow=hidden;rotatable=0;points=[[0,0.5],[1,0.5]];portConstraint=eastwest;whiteSpace=wrap;html=1;" parent="LK9hV9PF9iakqC5knJyZ-37" vertex="1">
          <mxGeometry y="104" width="220" height="26" as="geometry" />
        </mxCell>
        <mxCell id="LK9hV9PF9iakqC5knJyZ-87" style="edgeStyle=orthogonalEdgeStyle;rounded=0;orthogonalLoop=1;jettySize=auto;html=1;" parent="LK9hV9PF9iakqC5knJyZ-37" source="LK9hV9PF9iakqC5knJyZ-51" edge="1">
          <mxGeometry relative="1" as="geometry">
            <mxPoint x="240" y="143" as="targetPoint" />
          </mxGeometry>
        </mxCell>
        <mxCell id="LK9hV9PF9iakqC5knJyZ-93" value="4" style="edgeLabel;html=1;align=center;verticalAlign=middle;resizable=0;points=[];" parent="LK9hV9PF9iakqC5knJyZ-87" vertex="1" connectable="0">
          <mxGeometry x="0.5357" y="1" relative="1" as="geometry">
            <mxPoint x="14" y="7" as="offset" />
          </mxGeometry>
        </mxCell>
        <mxCell id="LK9hV9PF9iakqC5knJyZ-51" value="+ requets: vec&amp;lt;vec&amp;lt;bool&amp;gt;&amp;gt;" style="text;strokeColor=none;fillColor=none;align=left;verticalAlign=top;spacingLeft=4;spacingRight=4;overflow=hidden;rotatable=0;points=[[0,0.5],[1,0.5]];portConstraint=eastwest;whiteSpace=wrap;html=1;" parent="LK9hV9PF9iakqC5knJyZ-37" vertex="1">
          <mxGeometry y="130" width="220" height="26" as="geometry" />
        </mxCell>
        <mxCell id="LK9hV9PF9iakqC5knJyZ-88" style="edgeStyle=orthogonalEdgeStyle;rounded=0;orthogonalLoop=1;jettySize=auto;html=1;" parent="LK9hV9PF9iakqC5knJyZ-37" source="LK9hV9PF9iakqC5knJyZ-50" edge="1">
          <mxGeometry relative="1" as="geometry">
            <mxPoint x="240" y="168.9999999999999" as="targetPoint" />
          </mxGeometry>
        </mxCell>
        <mxCell id="LK9hV9PF9iakqC5knJyZ-94" value="5" style="edgeLabel;html=1;align=center;verticalAlign=middle;resizable=0;points=[];" parent="LK9hV9PF9iakqC5knJyZ-88" vertex="1" connectable="0">
          <mxGeometry x="0.5357" y="2" relative="1" as="geometry">
            <mxPoint x="14" y="8" as="offset" />
          </mxGeometry>
        </mxCell>
        <mxCell id="LK9hV9PF9iakqC5knJyZ-50" value="+ behaviour: ElevatorBehaviour" style="text;strokeColor=none;fillColor=none;align=left;verticalAlign=top;spacingLeft=4;spacingRight=4;overflow=hidden;rotatable=0;points=[[0,0.5],[1,0.5]];portConstraint=eastwest;whiteSpace=wrap;html=1;" parent="LK9hV9PF9iakqC5knJyZ-37" vertex="1">
          <mxGeometry y="156" width="220" height="26" as="geometry" />
        </mxCell>
        <mxCell id="LK9hV9PF9iakqC5knJyZ-39" value="" style="line;strokeWidth=1;fillColor=none;align=left;verticalAlign=middle;spacingTop=-1;spacingLeft=3;spacingRight=3;rotatable=0;labelPosition=right;points=[];portConstraint=eastwest;strokeColor=inherit;" parent="LK9hV9PF9iakqC5knJyZ-37" vertex="1">
          <mxGeometry y="182" width="220" height="8" as="geometry" />
        </mxCell>
        <mxCell id="LK9hV9PF9iakqC5knJyZ-96" style="edgeStyle=orthogonalEdgeStyle;rounded=0;orthogonalLoop=1;jettySize=auto;html=1;" parent="LK9hV9PF9iakqC5knJyZ-37" source="LK9hV9PF9iakqC5knJyZ-40" edge="1">
          <mxGeometry relative="1" as="geometry">
            <mxPoint x="240" y="203" as="targetPoint" />
          </mxGeometry>
        </mxCell>
        <mxCell id="LK9hV9PF9iakqC5knJyZ-107" value="6" style="edgeLabel;html=1;align=center;verticalAlign=middle;resizable=0;points=[];" parent="LK9hV9PF9iakqC5knJyZ-96" vertex="1" connectable="0">
          <mxGeometry x="0.3571" y="1" relative="1" as="geometry">
            <mxPoint x="16" y="7" as="offset" />
          </mxGeometry>
        </mxCell>
        <mxCell id="LK9hV9PF9iakqC5knJyZ-40" value="+ init(addr, num_floors): Elevator" style="text;strokeColor=none;fillColor=none;align=left;verticalAlign=top;spacingLeft=4;spacingRight=4;overflow=hidden;rotatable=0;points=[[0,0.5],[1,0.5]];portConstraint=eastwest;whiteSpace=wrap;html=1;" parent="LK9hV9PF9iakqC5knJyZ-37" vertex="1">
          <mxGeometry y="190" width="220" height="26" as="geometry" />
        </mxCell>
        <mxCell id="LK9hV9PF9iakqC5knJyZ-98" style="edgeStyle=orthogonalEdgeStyle;rounded=0;orthogonalLoop=1;jettySize=auto;html=1;" parent="LK9hV9PF9iakqC5knJyZ-37" source="LK9hV9PF9iakqC5knJyZ-63" edge="1">
          <mxGeometry relative="1" as="geometry">
            <mxPoint x="240" y="228.9999999999999" as="targetPoint" />
          </mxGeometry>
        </mxCell>
        <mxCell id="LK9hV9PF9iakqC5knJyZ-108" value="7" style="edgeLabel;html=1;align=center;verticalAlign=middle;resizable=0;points=[];" parent="LK9hV9PF9iakqC5knJyZ-98" vertex="1" connectable="0">
          <mxGeometry x="0.119" y="1" relative="1" as="geometry">
            <mxPoint x="18" y="7" as="offset" />
          </mxGeometry>
        </mxCell>
        <mxCell id="LK9hV9PF9iakqC5knJyZ-63" value="+ motor_direction(dirn): None" style="text;strokeColor=none;fillColor=none;align=left;verticalAlign=top;spacingLeft=4;spacingRight=4;overflow=hidden;rotatable=0;points=[[0,0.5],[1,0.5]];portConstraint=eastwest;whiteSpace=wrap;html=1;" parent="LK9hV9PF9iakqC5knJyZ-37" vertex="1">
          <mxGeometry y="216" width="220" height="26" as="geometry" />
        </mxCell>
        <mxCell id="LK9hV9PF9iakqC5knJyZ-99" style="edgeStyle=orthogonalEdgeStyle;rounded=0;orthogonalLoop=1;jettySize=auto;html=1;" parent="LK9hV9PF9iakqC5knJyZ-37" source="LK9hV9PF9iakqC5knJyZ-62" edge="1">
          <mxGeometry relative="1" as="geometry">
            <mxPoint x="240" y="255" as="targetPoint" />
          </mxGeometry>
        </mxCell>
        <mxCell id="LK9hV9PF9iakqC5knJyZ-109" value="8" style="edgeLabel;html=1;align=center;verticalAlign=middle;resizable=0;points=[];" parent="LK9hV9PF9iakqC5knJyZ-99" vertex="1" connectable="0">
          <mxGeometry x="0.3571" relative="1" as="geometry">
            <mxPoint x="16" y="6" as="offset" />
          </mxGeometry>
        </mxCell>
        <mxCell id="LK9hV9PF9iakqC5knJyZ-62" value="+ call_button_light(floor, call, on): None" style="text;strokeColor=none;fillColor=none;align=left;verticalAlign=top;spacingLeft=4;spacingRight=4;overflow=hidden;rotatable=0;points=[[0,0.5],[1,0.5]];portConstraint=eastwest;whiteSpace=wrap;html=1;" parent="LK9hV9PF9iakqC5knJyZ-37" vertex="1">
          <mxGeometry y="242" width="220" height="26" as="geometry" />
        </mxCell>
        <mxCell id="LK9hV9PF9iakqC5knJyZ-100" style="edgeStyle=orthogonalEdgeStyle;rounded=0;orthogonalLoop=1;jettySize=auto;html=1;" parent="LK9hV9PF9iakqC5knJyZ-37" source="LK9hV9PF9iakqC5knJyZ-61" edge="1">
          <mxGeometry relative="1" as="geometry">
            <mxPoint x="240" y="281" as="targetPoint" />
          </mxGeometry>
        </mxCell>
        <mxCell id="LK9hV9PF9iakqC5knJyZ-110" value="9" style="edgeLabel;html=1;align=center;verticalAlign=middle;resizable=0;points=[];" parent="LK9hV9PF9iakqC5knJyZ-100" vertex="1" connectable="0">
          <mxGeometry y="3" relative="1" as="geometry">
            <mxPoint x="19" y="9" as="offset" />
          </mxGeometry>
        </mxCell>
        <mxCell id="LK9hV9PF9iakqC5knJyZ-61" value="+ floor_indicator(floor): None" style="text;strokeColor=none;fillColor=none;align=left;verticalAlign=top;spacingLeft=4;spacingRight=4;overflow=hidden;rotatable=0;points=[[0,0.5],[1,0.5]];portConstraint=eastwest;whiteSpace=wrap;html=1;" parent="LK9hV9PF9iakqC5knJyZ-37" vertex="1">
          <mxGeometry y="268" width="220" height="26" as="geometry" />
        </mxCell>
        <mxCell id="LK9hV9PF9iakqC5knJyZ-101" style="edgeStyle=orthogonalEdgeStyle;rounded=0;orthogonalLoop=1;jettySize=auto;html=1;" parent="LK9hV9PF9iakqC5knJyZ-37" source="LK9hV9PF9iakqC5knJyZ-60" edge="1">
          <mxGeometry relative="1" as="geometry">
            <mxPoint x="240" y="307" as="targetPoint" />
          </mxGeometry>
        </mxCell>
        <mxCell id="LK9hV9PF9iakqC5knJyZ-111" value="10" style="edgeLabel;html=1;align=center;verticalAlign=middle;resizable=0;points=[];" parent="LK9hV9PF9iakqC5knJyZ-101" vertex="1" connectable="0">
          <mxGeometry x="0.3571" y="-2" relative="1" as="geometry">
            <mxPoint x="16" y="4" as="offset" />
          </mxGeometry>
        </mxCell>
        <mxCell id="LK9hV9PF9iakqC5knJyZ-60" value="+ door_light(on): None" style="text;strokeColor=none;fillColor=none;align=left;verticalAlign=top;spacingLeft=4;spacingRight=4;overflow=hidden;rotatable=0;points=[[0,0.5],[1,0.5]];portConstraint=eastwest;whiteSpace=wrap;html=1;" parent="LK9hV9PF9iakqC5knJyZ-37" vertex="1">
          <mxGeometry y="294" width="220" height="26" as="geometry" />
        </mxCell>
        <mxCell id="LK9hV9PF9iakqC5knJyZ-102" style="edgeStyle=orthogonalEdgeStyle;rounded=0;orthogonalLoop=1;jettySize=auto;html=1;" parent="LK9hV9PF9iakqC5knJyZ-37" source="LK9hV9PF9iakqC5knJyZ-59" edge="1">
          <mxGeometry relative="1" as="geometry">
            <mxPoint x="240" y="333" as="targetPoint" />
          </mxGeometry>
        </mxCell>
        <mxCell id="LK9hV9PF9iakqC5knJyZ-112" value="11" style="edgeLabel;html=1;align=center;verticalAlign=middle;resizable=0;points=[];" parent="LK9hV9PF9iakqC5knJyZ-102" vertex="1" connectable="0">
          <mxGeometry x="0.3571" relative="1" as="geometry">
            <mxPoint x="16" y="6" as="offset" />
          </mxGeometry>
        </mxCell>
        <mxCell id="LK9hV9PF9iakqC5knJyZ-59" value="+ stop_button_light(on): None" style="text;strokeColor=none;fillColor=none;align=left;verticalAlign=top;spacingLeft=4;spacingRight=4;overflow=hidden;rotatable=0;points=[[0,0.5],[1,0.5]];portConstraint=eastwest;whiteSpace=wrap;html=1;" parent="LK9hV9PF9iakqC5knJyZ-37" vertex="1">
          <mxGeometry y="320" width="220" height="26" as="geometry" />
        </mxCell>
        <mxCell id="LK9hV9PF9iakqC5knJyZ-103" style="edgeStyle=orthogonalEdgeStyle;rounded=0;orthogonalLoop=1;jettySize=auto;html=1;" parent="LK9hV9PF9iakqC5knJyZ-37" source="LK9hV9PF9iakqC5knJyZ-58" edge="1">
          <mxGeometry relative="1" as="geometry">
            <mxPoint x="240" y="358.9999999999999" as="targetPoint" />
          </mxGeometry>
        </mxCell>
        <mxCell id="LK9hV9PF9iakqC5knJyZ-113" value="12" style="edgeLabel;html=1;align=center;verticalAlign=middle;resizable=0;points=[];" parent="LK9hV9PF9iakqC5knJyZ-103" vertex="1" connectable="0">
          <mxGeometry x="0.3571" relative="1" as="geometry">
            <mxPoint x="16" y="6" as="offset" />
          </mxGeometry>
        </mxCell>
        <mxCell id="LK9hV9PF9iakqC5knJyZ-58" value="+ call_button(floor, call): bool" style="text;strokeColor=none;fillColor=none;align=left;verticalAlign=top;spacingLeft=4;spacingRight=4;overflow=hidden;rotatable=0;points=[[0,0.5],[1,0.5]];portConstraint=eastwest;whiteSpace=wrap;html=1;" parent="LK9hV9PF9iakqC5knJyZ-37" vertex="1">
          <mxGeometry y="346" width="220" height="26" as="geometry" />
        </mxCell>
        <mxCell id="LK9hV9PF9iakqC5knJyZ-104" style="edgeStyle=orthogonalEdgeStyle;rounded=0;orthogonalLoop=1;jettySize=auto;html=1;" parent="LK9hV9PF9iakqC5knJyZ-37" source="LK9hV9PF9iakqC5knJyZ-57" edge="1">
          <mxGeometry relative="1" as="geometry">
            <mxPoint x="240" y="385" as="targetPoint" />
          </mxGeometry>
        </mxCell>
        <mxCell id="LK9hV9PF9iakqC5knJyZ-114" value="13" style="edgeLabel;html=1;align=center;verticalAlign=middle;resizable=0;points=[];" parent="LK9hV9PF9iakqC5knJyZ-104" vertex="1" connectable="0">
          <mxGeometry x="0.0595" y="2" relative="1" as="geometry">
            <mxPoint x="19" y="8" as="offset" />
          </mxGeometry>
        </mxCell>
        <mxCell id="LK9hV9PF9iakqC5knJyZ-57" value="+ floor_sensor(None): u8" style="text;strokeColor=none;fillColor=none;align=left;verticalAlign=top;spacingLeft=4;spacingRight=4;overflow=hidden;rotatable=0;points=[[0,0.5],[1,0.5]];portConstraint=eastwest;whiteSpace=wrap;html=1;" parent="LK9hV9PF9iakqC5knJyZ-37" vertex="1">
          <mxGeometry y="372" width="220" height="26" as="geometry" />
        </mxCell>
        <mxCell id="LK9hV9PF9iakqC5knJyZ-106" style="edgeStyle=orthogonalEdgeStyle;rounded=0;orthogonalLoop=1;jettySize=auto;html=1;" parent="LK9hV9PF9iakqC5knJyZ-37" source="LK9hV9PF9iakqC5knJyZ-56" edge="1">
          <mxGeometry relative="1" as="geometry">
            <mxPoint x="240" y="411" as="targetPoint" />
          </mxGeometry>
        </mxCell>
        <mxCell id="LK9hV9PF9iakqC5knJyZ-115" value="14" style="edgeLabel;html=1;align=center;verticalAlign=middle;resizable=0;points=[];" parent="LK9hV9PF9iakqC5knJyZ-106" vertex="1" connectable="0">
          <mxGeometry x="-0.0595" y="3" relative="1" as="geometry">
            <mxPoint x="20" y="9" as="offset" />
          </mxGeometry>
        </mxCell>
        <mxCell id="LK9hV9PF9iakqC5knJyZ-56" value="+ stop_button(None): bool" style="text;strokeColor=none;fillColor=none;align=left;verticalAlign=top;spacingLeft=4;spacingRight=4;overflow=hidden;rotatable=0;points=[[0,0.5],[1,0.5]];portConstraint=eastwest;whiteSpace=wrap;html=1;" parent="LK9hV9PF9iakqC5knJyZ-37" vertex="1">
          <mxGeometry y="398" width="220" height="26" as="geometry" />
        </mxCell>
        <mxCell id="LK9hV9PF9iakqC5knJyZ-105" style="edgeStyle=orthogonalEdgeStyle;rounded=0;orthogonalLoop=1;jettySize=auto;html=1;" parent="LK9hV9PF9iakqC5knJyZ-37" source="LK9hV9PF9iakqC5knJyZ-55" edge="1">
          <mxGeometry relative="1" as="geometry">
            <mxPoint x="240" y="437" as="targetPoint" />
          </mxGeometry>
        </mxCell>
        <mxCell id="LK9hV9PF9iakqC5knJyZ-116" value="15" style="edgeLabel;html=1;align=center;verticalAlign=middle;resizable=0;points=[];" parent="LK9hV9PF9iakqC5knJyZ-105" vertex="1" connectable="0">
          <mxGeometry x="-0.1786" relative="1" as="geometry">
            <mxPoint x="21" as="offset" />
          </mxGeometry>
        </mxCell>
        <mxCell id="LK9hV9PF9iakqC5knJyZ-55" value="+ obstruction(None): bool" style="text;strokeColor=none;fillColor=none;align=left;verticalAlign=top;spacingLeft=4;spacingRight=4;overflow=hidden;rotatable=0;points=[[0,0.5],[1,0.5]];portConstraint=eastwest;whiteSpace=wrap;html=1;" parent="LK9hV9PF9iakqC5knJyZ-37" vertex="1">
          <mxGeometry y="424" width="220" height="26" as="geometry" />
        </mxCell>
        <mxCell id="LK9hV9PF9iakqC5knJyZ-65" value="requests.rs" style="swimlane;fontStyle=0;childLayout=stackLayout;horizontal=1;startSize=26;fillColor=none;horizontalStack=0;resizeParent=1;resizeParentMax=0;resizeLast=0;collapsible=1;marginBottom=0;whiteSpace=wrap;html=1;" parent="1" vertex="1">
          <mxGeometry x="210" y="580" width="380" height="208" as="geometry" />
        </mxCell>
        <mxCell id="LK9hV9PF9iakqC5knJyZ-131" style="edgeStyle=orthogonalEdgeStyle;rounded=0;orthogonalLoop=1;jettySize=auto;html=1;" parent="LK9hV9PF9iakqC5knJyZ-65" edge="1">
          <mxGeometry relative="1" as="geometry">
            <mxPoint x="410" y="40" as="targetPoint" />
            <mxPoint x="380" y="39.01886792452831" as="sourcePoint" />
            <Array as="points">
              <mxPoint x="390" y="39" />
              <mxPoint x="390" y="40" />
            </Array>
          </mxGeometry>
        </mxCell>
        <mxCell id="LK9hV9PF9iakqC5knJyZ-136" value="16" style="edgeLabel;html=1;align=center;verticalAlign=middle;resizable=0;points=[];" parent="LK9hV9PF9iakqC5knJyZ-131" vertex="1" connectable="0">
          <mxGeometry x="0.3016" y="1" relative="1" as="geometry">
            <mxPoint x="16" y="1" as="offset" />
          </mxGeometry>
        </mxCell>
        <mxCell id="LK9hV9PF9iakqC5knJyZ-66" value="+ requests_above(Elevator): bool" style="text;strokeColor=none;fillColor=none;align=left;verticalAlign=top;spacingLeft=4;spacingRight=4;overflow=hidden;rotatable=0;points=[[0,0.5],[1,0.5]];portConstraint=eastwest;whiteSpace=wrap;html=1;" parent="LK9hV9PF9iakqC5knJyZ-65" vertex="1">
          <mxGeometry y="26" width="380" height="26" as="geometry" />
        </mxCell>
        <mxCell id="LK9hV9PF9iakqC5knJyZ-133" style="edgeStyle=orthogonalEdgeStyle;rounded=0;orthogonalLoop=1;jettySize=auto;html=1;" parent="LK9hV9PF9iakqC5knJyZ-65" source="LK9hV9PF9iakqC5knJyZ-67" edge="1">
          <mxGeometry relative="1" as="geometry">
            <mxPoint x="410" y="65" as="targetPoint" />
          </mxGeometry>
        </mxCell>
        <mxCell id="LK9hV9PF9iakqC5knJyZ-137" value="17" style="edgeLabel;html=1;align=center;verticalAlign=middle;resizable=0;points=[];" parent="LK9hV9PF9iakqC5knJyZ-133" vertex="1" connectable="0">
          <mxGeometry x="0.3016" y="2" relative="1" as="geometry">
            <mxPoint x="16" y="2" as="offset" />
          </mxGeometry>
        </mxCell>
        <mxCell id="LK9hV9PF9iakqC5knJyZ-67" value="+ requests_below(Elevator): bool" style="text;strokeColor=none;fillColor=none;align=left;verticalAlign=top;spacingLeft=4;spacingRight=4;overflow=hidden;rotatable=0;points=[[0,0.5],[1,0.5]];portConstraint=eastwest;whiteSpace=wrap;html=1;" parent="LK9hV9PF9iakqC5knJyZ-65" vertex="1">
          <mxGeometry y="52" width="380" height="26" as="geometry" />
        </mxCell>
        <mxCell id="LK9hV9PF9iakqC5knJyZ-134" style="edgeStyle=orthogonalEdgeStyle;rounded=0;orthogonalLoop=1;jettySize=auto;html=1;" parent="LK9hV9PF9iakqC5knJyZ-65" edge="1">
          <mxGeometry relative="1" as="geometry">
            <mxPoint x="410" y="90" as="targetPoint" />
            <mxPoint x="380" y="90.01886792452831" as="sourcePoint" />
            <Array as="points">
              <mxPoint x="400" y="90" />
              <mxPoint x="400" y="90" />
            </Array>
          </mxGeometry>
        </mxCell>
        <mxCell id="LK9hV9PF9iakqC5knJyZ-138" value="18" style="edgeLabel;html=1;align=center;verticalAlign=middle;resizable=0;points=[];" parent="LK9hV9PF9iakqC5knJyZ-134" vertex="1" connectable="0">
          <mxGeometry x="0.2404" relative="1" as="geometry">
            <mxPoint x="17" as="offset" />
          </mxGeometry>
        </mxCell>
        <mxCell id="LK9hV9PF9iakqC5knJyZ-68" value="+ requests_here(Elevator): bool" style="text;strokeColor=none;fillColor=none;align=left;verticalAlign=top;spacingLeft=4;spacingRight=4;overflow=hidden;rotatable=0;points=[[0,0.5],[1,0.5]];portConstraint=eastwest;whiteSpace=wrap;html=1;" parent="LK9hV9PF9iakqC5knJyZ-65" vertex="1">
          <mxGeometry y="78" width="380" height="26" as="geometry" />
        </mxCell>
        <mxCell id="LK9hV9PF9iakqC5knJyZ-135" style="edgeStyle=orthogonalEdgeStyle;rounded=0;orthogonalLoop=1;jettySize=auto;html=1;" parent="LK9hV9PF9iakqC5knJyZ-65" edge="1">
          <mxGeometry relative="1" as="geometry">
            <mxPoint x="410" y="117" as="targetPoint" />
            <mxPoint x="380" y="116.98113207547169" as="sourcePoint" />
            <Array as="points">
              <mxPoint x="410" y="117" />
            </Array>
          </mxGeometry>
        </mxCell>
        <mxCell id="LK9hV9PF9iakqC5knJyZ-140" value="19" style="edgeLabel;html=1;align=center;verticalAlign=middle;resizable=0;points=[];" parent="LK9hV9PF9iakqC5knJyZ-135" vertex="1" connectable="0">
          <mxGeometry x="0.3629" y="2" relative="1" as="geometry">
            <mxPoint x="16" y="2" as="offset" />
          </mxGeometry>
        </mxCell>
        <mxCell id="LK9hV9PF9iakqC5knJyZ-130" value="+ requests_choose_direction(Elevator): DirnBehaviourPair" style="text;strokeColor=none;fillColor=none;align=left;verticalAlign=top;spacingLeft=4;spacingRight=4;overflow=hidden;rotatable=0;points=[[0,0.5],[1,0.5]];portConstraint=eastwest;whiteSpace=wrap;html=1;" parent="LK9hV9PF9iakqC5knJyZ-65" vertex="1">
          <mxGeometry y="104" width="380" height="26" as="geometry" />
        </mxCell>
        <mxCell id="g7h0uX8e83a2EdI19kgs-5" style="edgeStyle=orthogonalEdgeStyle;rounded=0;orthogonalLoop=1;jettySize=auto;html=1;" edge="1" parent="LK9hV9PF9iakqC5knJyZ-65" source="g7h0uX8e83a2EdI19kgs-4">
          <mxGeometry relative="1" as="geometry">
            <mxPoint x="410" y="143" as="targetPoint" />
          </mxGeometry>
        </mxCell>
        <mxCell id="g7h0uX8e83a2EdI19kgs-4" value="&lt;div&gt;+ requests_should_stop(Elevator): bool&lt;/div&gt;" style="text;strokeColor=none;fillColor=none;align=left;verticalAlign=top;spacingLeft=4;spacingRight=4;overflow=hidden;rotatable=0;points=[[0,0.5],[1,0.5]];portConstraint=eastwest;whiteSpace=wrap;html=1;" vertex="1" parent="LK9hV9PF9iakqC5knJyZ-65">
          <mxGeometry y="130" width="380" height="26" as="geometry" />
        </mxCell>
        <mxCell id="g7h0uX8e83a2EdI19kgs-6" style="edgeStyle=orthogonalEdgeStyle;rounded=0;orthogonalLoop=1;jettySize=auto;html=1;" edge="1" parent="LK9hV9PF9iakqC5knJyZ-65" source="g7h0uX8e83a2EdI19kgs-3">
          <mxGeometry relative="1" as="geometry">
            <mxPoint x="410" y="169" as="targetPoint" />
          </mxGeometry>
        </mxCell>
        <mxCell id="g7h0uX8e83a2EdI19kgs-3" value="+ requests_should_clear_immidiately(Elevator, btn_floor, btn_type)" style="text;strokeColor=none;fillColor=none;align=left;verticalAlign=top;spacingLeft=4;spacingRight=4;overflow=hidden;rotatable=0;points=[[0,0.5],[1,0.5]];portConstraint=eastwest;whiteSpace=wrap;html=1;" vertex="1" parent="LK9hV9PF9iakqC5knJyZ-65">
          <mxGeometry y="156" width="380" height="26" as="geometry" />
        </mxCell>
        <mxCell id="g7h0uX8e83a2EdI19kgs-7" style="edgeStyle=orthogonalEdgeStyle;rounded=0;orthogonalLoop=1;jettySize=auto;html=1;" edge="1" parent="LK9hV9PF9iakqC5knJyZ-65" source="g7h0uX8e83a2EdI19kgs-2">
          <mxGeometry relative="1" as="geometry">
            <mxPoint x="410" y="194.9999999999999" as="targetPoint" />
          </mxGeometry>
        </mxCell>
        <mxCell id="g7h0uX8e83a2EdI19kgs-2" value="+ request_clear_at_current_floor(Elevator): Elevator" style="text;strokeColor=none;fillColor=none;align=left;verticalAlign=top;spacingLeft=4;spacingRight=4;overflow=hidden;rotatable=0;points=[[0,0.5],[1,0.5]];portConstraint=eastwest;whiteSpace=wrap;html=1;" vertex="1" parent="LK9hV9PF9iakqC5knJyZ-65">
          <mxGeometry y="182" width="380" height="26" as="geometry" />
        </mxCell>
        <mxCell id="LK9hV9PF9iakqC5knJyZ-117" value="" style="endArrow=classic;html=1;rounded=0;entryX=0;entryY=0.5;entryDx=0;entryDy=0;exitX=1;exitY=0.5;exitDx=0;exitDy=0;" parent="1" source="LK9hV9PF9iakqC5knJyZ-120" target="LK9hV9PF9iakqC5knJyZ-66" edge="1">
          <mxGeometry width="50" height="50" relative="1" as="geometry">
            <mxPoint x="190" y="619" as="sourcePoint" />
            <mxPoint x="170" y="590" as="targetPoint" />
          </mxGeometry>
        </mxCell>
        <mxCell id="LK9hV9PF9iakqC5knJyZ-118" value="" style="endArrow=classic;html=1;rounded=0;entryX=0;entryY=0.5;entryDx=0;entryDy=0;exitX=1;exitY=0.5;exitDx=0;exitDy=0;" parent="1" source="LK9hV9PF9iakqC5knJyZ-124" target="LK9hV9PF9iakqC5knJyZ-67" edge="1">
          <mxGeometry width="50" height="50" relative="1" as="geometry">
            <mxPoint x="190" y="644.9200000000001" as="sourcePoint" />
            <mxPoint x="190" y="660" as="targetPoint" />
          </mxGeometry>
        </mxCell>
        <mxCell id="LK9hV9PF9iakqC5knJyZ-119" value="" style="endArrow=classic;html=1;rounded=0;entryX=0;entryY=0.5;entryDx=0;entryDy=0;exitX=1;exitY=0.5;exitDx=0;exitDy=0;" parent="1" source="LK9hV9PF9iakqC5knJyZ-125" target="LK9hV9PF9iakqC5knJyZ-68" edge="1">
          <mxGeometry width="50" height="50" relative="1" as="geometry">
            <mxPoint x="190" y="671" as="sourcePoint" />
            <mxPoint x="200" y="680" as="targetPoint" />
          </mxGeometry>
        </mxCell>
        <mxCell id="LK9hV9PF9iakqC5knJyZ-120" value="1,2,12" style="rounded=0;whiteSpace=wrap;html=1;" parent="1" vertex="1">
          <mxGeometry x="140" y="611" width="40" height="16" as="geometry" />
        </mxCell>
        <mxCell id="LK9hV9PF9iakqC5knJyZ-124" value="2,12" style="rounded=0;whiteSpace=wrap;html=1;" parent="1" vertex="1">
          <mxGeometry x="140" y="637" width="40" height="16" as="geometry" />
        </mxCell>
        <mxCell id="LK9hV9PF9iakqC5knJyZ-125" value="2,12" style="rounded=0;whiteSpace=wrap;html=1;" parent="1" vertex="1">
          <mxGeometry x="140" y="663" width="40" height="16" as="geometry" />
        </mxCell>
        <mxCell id="LK9hV9PF9iakqC5knJyZ-126" value="DirnBehaviourPair (requests.rs)" style="swimlane;fontStyle=0;childLayout=stackLayout;horizontal=1;startSize=26;fillColor=none;horizontalStack=0;resizeParent=1;resizeParentMax=0;resizeLast=0;collapsible=1;marginBottom=0;whiteSpace=wrap;html=1;" parent="1" vertex="1">
          <mxGeometry x="1170" y="209" width="180" height="78" as="geometry" />
        </mxCell>
        <mxCell id="LK9hV9PF9iakqC5knJyZ-127" value="+ dirn: u8" style="text;strokeColor=none;fillColor=none;align=left;verticalAlign=top;spacingLeft=4;spacingRight=4;overflow=hidden;rotatable=0;points=[[0,0.5],[1,0.5]];portConstraint=eastwest;whiteSpace=wrap;html=1;" parent="LK9hV9PF9iakqC5knJyZ-126" vertex="1">
          <mxGeometry y="26" width="180" height="26" as="geometry" />
        </mxCell>
        <mxCell id="LK9hV9PF9iakqC5knJyZ-128" value="+ behaviour: u8" style="text;strokeColor=none;fillColor=none;align=left;verticalAlign=top;spacingLeft=4;spacingRight=4;overflow=hidden;rotatable=0;points=[[0,0.5],[1,0.5]];portConstraint=eastwest;whiteSpace=wrap;html=1;" parent="LK9hV9PF9iakqC5knJyZ-126" vertex="1">
          <mxGeometry y="52" width="180" height="26" as="geometry" />
        </mxCell>
        <mxCell id="LK9hV9PF9iakqC5knJyZ-163" style="edgeStyle=orthogonalEdgeStyle;rounded=0;orthogonalLoop=1;jettySize=auto;html=1;entryX=0;entryY=0.5;entryDx=0;entryDy=0;" parent="1" source="LK9hV9PF9iakqC5knJyZ-141" target="LK9hV9PF9iakqC5knJyZ-130" edge="1">
          <mxGeometry relative="1" as="geometry" />
        </mxCell>
        <mxCell id="LK9hV9PF9iakqC5knJyZ-141" value="3,16,17,18" style="rounded=0;whiteSpace=wrap;html=1;" parent="1" vertex="1">
          <mxGeometry x="110" y="689" width="70" height="16" as="geometry" />
        </mxCell>
        <mxCell id="g7h0uX8e83a2EdI19kgs-8" value="21" style="edgeLabel;html=1;align=center;verticalAlign=middle;resizable=0;points=[];rotation=0;" vertex="1" connectable="0" parent="1">
          <mxGeometry x="630.0012539058478" y="748.0037110848901" as="geometry">
            <mxPoint x="-3" as="offset" />
          </mxGeometry>
        </mxCell>
        <mxCell id="g7h0uX8e83a2EdI19kgs-9" value="&lt;div&gt;20&lt;/div&gt;" style="edgeLabel;html=1;align=center;verticalAlign=middle;resizable=0;points=[];" vertex="1" connectable="0" parent="1">
          <mxGeometry x="627.0012539058478" y="722.9937110848902" as="geometry">
            <mxPoint x="1" y="-1" as="offset" />
          </mxGeometry>
        </mxCell>
        <mxCell id="g7h0uX8e83a2EdI19kgs-10" value="22" style="edgeLabel;html=1;align=center;verticalAlign=middle;resizable=0;points=[];" vertex="1" connectable="0" parent="1">
          <mxGeometry x="627.0012539058478" y="774.0037110848901" as="geometry" />
        </mxCell>
        <mxCell id="g7h0uX8e83a2EdI19kgs-20" style="edgeStyle=orthogonalEdgeStyle;rounded=0;orthogonalLoop=1;jettySize=auto;html=1;entryX=0;entryY=0.5;entryDx=0;entryDy=0;" edge="1" parent="1">
          <mxGeometry relative="1" as="geometry">
            <mxPoint x="150" y="723" as="sourcePoint" />
            <mxPoint x="210" y="723" as="targetPoint" />
          </mxGeometry>
        </mxCell>
        <mxCell id="g7h0uX8e83a2EdI19kgs-11" value="4,20,21,22,26,27,28" style="rounded=0;whiteSpace=wrap;html=1;" vertex="1" parent="1">
          <mxGeometry x="70" y="714.99" width="110" height="16" as="geometry" />
        </mxCell>
        <mxCell id="g7h0uX8e83a2EdI19kgs-19" style="edgeStyle=orthogonalEdgeStyle;rounded=0;orthogonalLoop=1;jettySize=auto;html=1;entryX=0;entryY=0.5;entryDx=0;entryDy=0;" edge="1" parent="1" source="g7h0uX8e83a2EdI19kgs-12" target="g7h0uX8e83a2EdI19kgs-3">
          <mxGeometry relative="1" as="geometry" />
        </mxCell>
        <mxCell id="g7h0uX8e83a2EdI19kgs-12" value="2,26,27,28,29,30,31" style="rounded=0;whiteSpace=wrap;html=1;" vertex="1" parent="1">
          <mxGeometry x="70" y="741" width="109" height="16" as="geometry" />
        </mxCell>
        <mxCell id="g7h0uX8e83a2EdI19kgs-17" value="" style="edgeStyle=orthogonalEdgeStyle;rounded=0;orthogonalLoop=1;jettySize=auto;html=1;" edge="1" parent="1" source="g7h0uX8e83a2EdI19kgs-13" target="g7h0uX8e83a2EdI19kgs-2">
          <mxGeometry relative="1" as="geometry" />
        </mxCell>
        <mxCell id="g7h0uX8e83a2EdI19kgs-13" value="2,3,4,20,21,22,26,27,28" style="rounded=0;whiteSpace=wrap;html=1;" vertex="1" parent="1">
          <mxGeometry x="50" y="767" width="129" height="16" as="geometry" />
        </mxCell>
        <mxCell id="g7h0uX8e83a2EdI19kgs-28" value="elevator.rs" style="swimlane;fontStyle=0;childLayout=stackLayout;horizontal=1;startSize=26;fillColor=none;horizontalStack=0;resizeParent=1;resizeParentMax=0;resizeLast=0;collapsible=1;marginBottom=0;whiteSpace=wrap;html=1;" vertex="1" parent="1">
          <mxGeometry x="320" y="840" width="260" height="130" as="geometry" />
        </mxCell>
        <mxCell id="g7h0uX8e83a2EdI19kgs-29" value="+ eb_to_string(ElevatorBehaviour): String" style="text;strokeColor=none;fillColor=none;align=left;verticalAlign=top;spacingLeft=4;spacingRight=4;overflow=hidden;rotatable=0;points=[[0,0.5],[1,0.5]];portConstraint=eastwest;whiteSpace=wrap;html=1;" vertex="1" parent="g7h0uX8e83a2EdI19kgs-28">
          <mxGeometry y="26" width="260" height="26" as="geometry" />
        </mxCell>
        <mxCell id="g7h0uX8e83a2EdI19kgs-30" value="+ elevio_dirn_to_string(dirn): String" style="text;strokeColor=none;fillColor=none;align=left;verticalAlign=top;spacingLeft=4;spacingRight=4;overflow=hidden;rotatable=0;points=[[0,0.5],[1,0.5]];portConstraint=eastwest;whiteSpace=wrap;html=1;" vertex="1" parent="g7h0uX8e83a2EdI19kgs-28">
          <mxGeometry y="52" width="260" height="26" as="geometry" />
        </mxCell>
        <mxCell id="g7h0uX8e83a2EdI19kgs-31" value="+ elevator_print(Elevator): None" style="text;strokeColor=none;fillColor=none;align=left;verticalAlign=top;spacingLeft=4;spacingRight=4;overflow=hidden;rotatable=0;points=[[0,0.5],[1,0.5]];portConstraint=eastwest;whiteSpace=wrap;html=1;" vertex="1" parent="g7h0uX8e83a2EdI19kgs-28">
          <mxGeometry y="78" width="260" height="26" as="geometry" />
        </mxCell>
        <mxCell id="g7h0uX8e83a2EdI19kgs-32" value="+ elevator_uninitialized(None): Elevator " style="text;strokeColor=none;fillColor=none;align=left;verticalAlign=top;spacingLeft=4;spacingRight=4;overflow=hidden;rotatable=0;points=[[0,0.5],[1,0.5]];portConstraint=eastwest;whiteSpace=wrap;html=1;" vertex="1" parent="g7h0uX8e83a2EdI19kgs-28">
          <mxGeometry y="104" width="260" height="26" as="geometry" />
        </mxCell>
        <mxCell id="g7h0uX8e83a2EdI19kgs-34" value="2,12" style="rounded=0;whiteSpace=wrap;html=1;" vertex="1" parent="1">
          <mxGeometry x="251" y="873" width="40" height="16" as="geometry" />
        </mxCell>
        <mxCell id="g7h0uX8e83a2EdI19kgs-42" value="poll.rs" style="swimlane;fontStyle=0;childLayout=stackLayout;horizontal=1;startSize=26;fillColor=none;horizontalStack=0;resizeParent=1;resizeParentMax=0;resizeLast=0;collapsible=1;marginBottom=0;whiteSpace=wrap;html=1;" vertex="1" parent="1">
          <mxGeometry x="360" y="1064" width="380" height="130" as="geometry" />
        </mxCell>
        <mxCell id="g7h0uX8e83a2EdI19kgs-43" value="+ call_buttons(Elevator, Sender&amp;lt;CallButton&amp;gt;, period)" style="text;strokeColor=none;fillColor=none;align=left;verticalAlign=top;spacingLeft=4;spacingRight=4;overflow=hidden;rotatable=0;points=[[0,0.5],[1,0.5]];portConstraint=eastwest;whiteSpace=wrap;html=1;" vertex="1" parent="g7h0uX8e83a2EdI19kgs-42">
          <mxGeometry y="26" width="380" height="26" as="geometry" />
        </mxCell>
        <mxCell id="g7h0uX8e83a2EdI19kgs-44" value="+ floor_sensor(Elevator, Sender&amp;lt;u8&amp;gt;, period)" style="text;strokeColor=none;fillColor=none;align=left;verticalAlign=top;spacingLeft=4;spacingRight=4;overflow=hidden;rotatable=0;points=[[0,0.5],[1,0.5]];portConstraint=eastwest;whiteSpace=wrap;html=1;" vertex="1" parent="g7h0uX8e83a2EdI19kgs-42">
          <mxGeometry y="52" width="380" height="26" as="geometry" />
        </mxCell>
        <mxCell id="g7h0uX8e83a2EdI19kgs-45" value="+ stop_button(Elevator, Sender&amp;lt;bool&amp;gt;, period)" style="text;strokeColor=none;fillColor=none;align=left;verticalAlign=top;spacingLeft=4;spacingRight=4;overflow=hidden;rotatable=0;points=[[0,0.5],[1,0.5]];portConstraint=eastwest;whiteSpace=wrap;html=1;" vertex="1" parent="g7h0uX8e83a2EdI19kgs-42">
          <mxGeometry y="78" width="380" height="26" as="geometry" />
        </mxCell>
        <mxCell id="g7h0uX8e83a2EdI19kgs-46" value="+ obstruction(Elevator, Sender&amp;lt;bool&amp;gt;, period)" style="text;strokeColor=none;fillColor=none;align=left;verticalAlign=top;spacingLeft=4;spacingRight=4;overflow=hidden;rotatable=0;points=[[0,0.5],[1,0.5]];portConstraint=eastwest;whiteSpace=wrap;html=1;" vertex="1" parent="g7h0uX8e83a2EdI19kgs-42">
          <mxGeometry y="104" width="380" height="26" as="geometry" />
        </mxCell>
      </root>
    </mxGraphModel>
  </diagram>
</mxfile>
